<?xml version="1.0" encoding="iso-8859-1"?>
<!-- Uploaded to: SVG Repo, www.svgrepo.com, Generator: SVG Repo Mixer Tools -->
<svg height="800px" width="800px" version="1.1" id="Layer_1" xmlns="http://www.w3.org/2000/svg"
	 viewBox="0 0 496.182 496.182" xml:space="preserve">
<path style="fill:#A3D5E0;" d="M248.094,0C111.074,0,0,111.063,0,248.091c0,137.012,111.074,248.091,248.094,248.091
	c137.012,0,248.088-111.079,248.088-248.091C496.182,111.063,385.106,0,248.094,0z"/>
<path style="fill:#EB9783;" d="M397.735,262.438c-4.613-15.383-3.055-45.663-1.518-86.875c0,0-20.306-3.396-43.334-3.396
	c-23.574,0-46.343,4.024-46.343,4.024c0.72,48.087-0.292,101.575-16.909,111.547c0,0-75.896,63.245-39.094,98.896
	c21.154,20.493,39.101,16.1,71.303-6.9c32.201-23.002,51.744-45.995,51.744-45.995s13.802-6.901,25.301-23.001
	C410.385,294.638,404.636,285.439,397.735,262.438z"/>
<g>
	<path style="fill:#EA4949;" d="M397.735,140.541c0,0-23-1.727-46.002-1.151c-23,0.575-46.002,5.751-46.002,5.751l0.81,31.051
		c0,0,22.769-4.024,46.343-4.024c23.028,0,43.334,3.396,43.334,3.396C396.156,177.167,397.735,140.541,397.735,140.541z"/>
	<path style="fill:#EA4949;" d="M241.945,353.009c-3.644,12.434,0.345,25.628,8.593,33.625c15.58,15.094,29.42,16.685,48.495,7.296
		C305.856,390.57,241.945,353.009,241.945,353.009z"/>
	<path style="fill:#EA4949;" d="M397.735,262.438c0,0-4.6,21.851-7.475,33.926c-2.874,12.075-16.676,37.376-16.676,37.376
		s13.802-6.901,25.301-23.001C410.385,294.638,404.636,285.439,397.735,262.438z"/>
</g>
<path style="fill:#EB9783;" d="M248.01,219.579c-4.613-15.382-3.055-45.663-1.518-86.875c0,0-20.306-3.396-43.334-3.396
	c-23.574,0-46.343,4.024-46.343,4.024c0.72,48.087-0.292,101.574-16.909,111.547c0,0-75.896,63.245-39.094,98.896
	c21.154,20.493,39.101,16.1,71.303-6.899c32.201-23.002,51.744-45.995,51.744-45.995s13.802-6.901,25.301-23.001
	C260.66,251.78,254.911,242.58,248.01,219.579z"/>
<g>
	<path style="fill:#EA4949;" d="M248.01,97.683c0,0-23-1.727-46.002-1.151c-23,0.575-46.002,5.751-46.002,5.751l0.81,31.051
		c0,0,22.769-4.024,46.343-4.024c23.028,0,43.334,3.396,43.334,3.396C246.432,134.309,248.01,97.683,248.01,97.683z"/>
	<path style="fill:#EA4949;" d="M92.22,310.43c-3.644,12.434,0.345,25.35,8.593,33.347c15.58,15.095,29.42,16.685,48.495,7.297
		C156.131,347.712,92.22,310.43,92.22,310.43z"/>
	<path style="fill:#EA4949;" d="M248.01,219.579c0,0-4.6,21.851-7.475,33.927c-2.874,12.075-16.676,37.376-16.676,37.376
		s13.802-6.901,25.301-23.001C260.66,251.78,254.911,242.58,248.01,219.579z"/>
</g>
</svg>